# xmcd CD database file
#
# Track frame offsets:
#	150
#	15462
#	35050
#	50435
#	72192
#	87060
#	109760
#	125722
#	144827
#	165972
#
# Disc length: 2459 seconds
#
# Revision: 3
# Processed by: cddbd v1.5.1PL0 Copyright (c) Steve Scherf et al.
# Submitted via: CDex 1.51
#
DISCID=7a09990a
DTITLE=田蔦道生 - Guitar Solo in X JAPAN
DYEAR=1991
DGENRE=Rock
TTITLE0=The Last Song
TTITLE1=Longing
TTITLE2=Endless Rain
TTITLE3=Unfinished
TTITLE4=Crucify My Love
TTITLE5=Alive
TTITLE6=Say Anything
TTITLE7=Tears
TTITLE8=Amethyst
TTITLE9=Forever Love
EXTD=YEAR: 1991
EXTT0=
EXTT1=
EXTT2=
EXTT3=
EXTT4=
EXTT5=
EXTT6=
EXTT7=
EXTT8=
EXTT9=
PLAYORDER=
